<svg xmlns="http://www.w3.org/2000/svg" viewBox="0 0 96 96" id="eyeoff"><path stroke="#fffcfc" stroke-linecap="round" stroke-width="5" d="M66.5 30.5242C73.1046 33.4264 79.1345 38.0007 83.9276 44.2471 85.8239 46.7183 85.8239 50.155 83.9276 52.6262 70.9653 69.5187 48.957 74.1823 31 66.6169M41.3865 55.5C43.1492 57.0554 45.4644 57.9991 48 57.9991 53.5229 57.9991 58 53.522 58 47.9991 58 45.518 57.0964 43.2479 55.6004 41.5M54.5 27.154C39.3224 25.1009 23.2695 30.7986 12.9499 44.2471 11.0537 46.7183 11.0537 50.155 12.9499 52.6262 15.4373 55.8678 18.2578 58.659 21.3188 61M38.3148 45.5C39.219 41.9856 41.9857 39.2187 45.5 38.3142M20.5 76.5L76.5 20.5" fill="none" class="svgStroke colorStroke000000-0"></path></svg>