<svg xmlns="http://www.w3.org/2000/svg" width="26" height="26" id="travel">
  <path d="M13 0C5.826 0 0 5.826 0 13s5.826 13 13 13 13-5.826 13-13S20.174 0 13 0zm0 1.002c6.633 0 12 5.365 12 11.998 0 6.633-5.367 12-12 12S1 19.633 1 13 6.367 1.002 13 1.002zm4.895 5.22a1.99 1.99 0 0 0-1.407.594l-2.281 2.282-5.75-1.032a.51.51 0 0 0-.437.125L6.613 9.63c-.226.238-.12.697.188.812l4.531 1.532-2.281 2.28-.938-.187a.508.508 0 0 0-.437.157l-1.438 1.406c-.226.238-.12.697.188.812l2.281.97.969 2.28c.115.308.574.414.812.188l1.407-1.438a.509.509 0 0 0 .156-.437l-.188-.906 2.282-2.282 1.53 4.5c.106.332.608.443.845.188l1.406-1.438a.509.509 0 0 0 .156-.437l-1.031-5.75 2.25-2.25a1.99 1.99 0 0 0 0-2.813 1.99 1.99 0 0 0-1.406-.593z" color="#000" font-family="Sans" font-weight="400" overflow="visible" style="line-height:normal;-inkscape-font-specification:Sans;text-indent:0;text-align:start;text-decoration-line:none;text-transform:none;block-progression:tb;marker:none"></path>
</svg>
