<svg width="48" height="48" viewBox="0 0 48 48" fill="none" xmlns="http://www.w3.org/2000/svg">
<path d="M45.47 34.4C46.48 31.78 47 29.03 47 26.2C47 21.16 45.31 16.23 42.26 12.24L43.41 11.01C43.77 10.62 43.77 10.03 43.41 9.65C38.23 4.07 31.34 1 24 1C16.66 1 9.77 4.07 4.59 9.65C4.23 10.03 4.23 10.62 4.59 11.01L5.74 12.24C2.69 16.23 1 21.16 1 26.2C1 29.03 1.52 31.78 2.53 34.4C1.26 35.33 0.67 37.01 1.2 38.58L2.92 43.69C3.23 44.64 3.9 45.39 4.78 45.83C5.2899 46.0701 5.83 46.2001 6.37 46.2001C6.77 46.2001 7.17 46.1301 7.56 45.9901L9.26 45.4001C9.61 45.9201 10.08 46.3501 10.66 46.6301C11.16 46.8801 11.7 47.0001 12.24 47.0001C12.64 47.0001 13.04 46.9301 13.43 46.8001L15.94 45.9201C17.83 45.2601 18.85 43.1501 18.2 41.2301L14.77 31.0101C14.45 30.0601 13.79 29.3001 12.9 28.8701C12.03 28.4401 11.04 28.3801 10.12 28.7001L7.62 29.58C6.04 30.13 5.09 31.68 5.18 33.29L4.35 33.57C3.47 31.22 3 28.75 3 26.2C3 21.5799 4.47 17.24 7.23 13.5799C8.43 14.2199 9.93 14.0999 11.03 13.14C14.69 9.94 19.3 8.17 24 8.17C28.7 8.17 33.31 9.94 36.97 13.14C37.62 13.7099 38.42 13.99 39.2101 13.99C39.7501 13.99 40.2801 13.84 40.7601 13.58C43.5301 17.24 45.0001 21.58 45.0001 26.2001C45.0001 28.7501 44.5301 31.2201 43.6501 33.5701L42.8201 33.2901C42.9101 31.6801 41.9601 30.1301 40.3801 29.5801L37.8801 28.7002C36.9601 28.3802 35.9701 28.4402 35.1001 28.8702C34.2101 29.3002 33.5501 30.0602 33.2301 31.0102L29.8001 41.2302C29.1501 43.1502 30.1701 45.2602 32.0601 45.9202L34.5701 46.8002C34.9601 46.9302 35.3601 47.0002 35.7601 47.0002C36.3001 47.0002 36.8401 46.8802 37.3401 46.6302C37.9201 46.3502 38.3901 45.9202 38.7401 45.4002L40.4401 45.9902C40.8301 46.1302 41.2301 46.2002 41.6301 46.2002C42.1701 46.2002 42.7101 46.0702 43.2201 45.8301C44.1001 45.3902 44.7701 44.6402 45.0801 43.6901L46.8001 38.5801C47.3301 37.0102 46.74 35.33 45.47 34.4ZM4.12 35.77L5.67 35.23L7.79 41.54L8.47 43.56L6.9001 44.11C6.4901 44.25 6.0501 44.22 5.66 44.03C5.26 43.83 4.96 43.49 4.81 43.05L3.09 37.94C2.79 37.05 3.25 36.08 4.12 35.77ZM44.91 37.94L43.19 43.05C43.04 43.49 42.74 43.83 42.34 44.03C41.95 44.22 41.51 44.25 41.0999 44.11L39.53 43.56L42.33 35.23L43.88 35.77C44.75 36.08 45.21 37.05 44.91 37.94Z" fill="#0D1117"/>
<path d="M24 26.8125C22.7764 26.8125 21.6348 27.3584 20.7861 28.3496C20.4267 28.769 20.4756 29.4004 20.8955 29.7598C21.3144 30.1177 21.9453 30.0713 22.3057 29.6504C23.2315 28.5693 24.7686 28.5693 25.6944 29.6504C25.8926 29.8814 26.1729 30 26.4542 30C26.6847 30 26.9161 29.9209 27.1046 29.7598C27.5245 29.4004 27.5734 28.7691 27.214 28.3496C26.3654 27.3584 25.2237 26.8125 24 26.8125ZM30.3779 25.937C30.7978 25.5776 30.8467 24.9463 30.4873 24.5268C28.7646 22.5146 26.4609 21.4062 24 21.4062C21.5391 21.4062 19.2354 22.5146 17.5127 24.5268C17.1533 24.9462 17.2022 25.5776 17.6221 25.937C18.041 26.2949 18.6719 26.248 19.0323 25.8276C20.3692 24.2661 22.1329 23.4062 24.0001 23.4062C25.8673 23.4062 27.631 24.2661 28.9679 25.8276C29.1661 26.0586 29.4464 26.1772 29.7277 26.1772C29.9582 26.1772 30.1894 26.0981 30.3779 25.937Z" fill="#0D1117"/>
<path d="M32.2402 22.0049C32.4384 22.2359 32.7187 22.3545 33 22.3545C33.2305 22.3545 33.4619 22.2754 33.6504 22.1143C34.0703 21.7549 34.1192 21.1236 33.7598 20.7041C31.1621 17.6704 27.6963 16 24 16C20.3037 16 16.8379 17.6704 14.2402 20.7041C13.8808 21.1235 13.9297 21.7549 14.3496 22.1143C14.7685 22.4722 15.3994 22.4253 15.7598 22.0049C17.9707 19.4224 20.8975 18 24 18C27.1025 18 30.0293 19.4224 32.2402 22.0049Z" fill="#0D1117"/>
</svg>
