<svg width="48" height="48" viewBox="0 0 48 48" fill="none" xmlns="http://www.w3.org/2000/svg">
<g clip-path="url(#clip0_2004_17)">
<path d="M37.472 28H30V24H26V28H18V20H22V16H18V8.526C19.3058 8.18255 20.6498 8.00581 22 8V4C10.97 4 2 12.972 2 24C2 35.028 10.97 44 22 44C33.028 44 42 35.028 42 24H38C38 25.382 37.804 26.718 37.472 28ZM14 10.166V16H8.164C9.56881 13.5808 11.5804 11.57 14 10.166ZM6.526 20H14V28H6.526C6.18172 26.6944 6.00497 25.3502 6 24C6 22.618 6.194 21.282 6.526 20ZM8.164 32H14V37.836C11.5807 36.4307 9.56927 34.4193 8.164 32ZM18 39.474V32H26V39.474C24.6944 39.8183 23.3502 39.995 22 40C20.6497 39.9952 19.3056 39.8184 18 39.474ZM30 37.836V32H35.834C34.4294 34.4192 32.4187 36.4306 30 37.836Z" fill="#0D1117" fill-opacity="0.94"/>
<path d="M45.824 7.03999C45.609 6.56567 45.2194 6.19248 44.7363 5.99804C44.2531 5.8036 43.7137 5.80287 43.23 5.99599L37.62 8.49399L30.978 4.28799L27.764 5.95199L34 9.99999H34.232L29.37 12.164L25.166 10.288L22 12.112L30 16.122L34.398 14.094L31.352 22L34.946 20.132L39.328 12.124L44.792 9.71999C45.0367 9.61292 45.2577 9.45839 45.4422 9.26534C45.6268 9.0723 45.7712 8.84457 45.8672 8.59533C45.9632 8.3461 46.0088 8.08031 46.0014 7.81334C45.994 7.54636 45.9337 7.28351 45.824 7.03999Z" fill="#0D1117" fill-opacity="0.94"/>
</g>
<defs>
<clipPath id="clip0_2004_17">
<rect width="48" height="48" fill="white"/>
</clipPath>
</defs>
</svg>
